<svg width="195" height="194" viewBox="0 0 195 194" fill="none" xmlns="http://www.w3.org/2000/svg">
<g id="Group 2462">
<g id="Group 2477">
<path id="Vector" d="M182.748 133.396C178.937 136.617 174.312 138.247 169.706 139.568H36.0552C28.9178 136.454 22.1115 132.332 15.8686 127.267C8.68927 121.433 1.66985 112.76 2.67867 102.71C3.56936 93.8781 10.2843 87.5856 16.3368 82.048C22.3894 76.5106 28.815 69.5188 28.7198 60.6313C28.6398 53.305 24.1176 47.1885 19.976 41.6165C15.8458 36.0362 11.6127 29.4691 12.2865 22.1858C12.789 16.721 16.1084 11.9941 20.1625 9.08165C24.2128 6.16916 28.9596 4.81386 33.657 3.77147C69.2644 -4.11673 116.368 4.21758 146.969 26.5738C153.452 31.3135 159.927 37.1085 162.641 45.3827C166.924 58.4351 160.841 72.058 155.694 83.4165C154 87.1525 153.547 91.9135 155.466 95.4996C157.19 98.7036 160.456 100.381 163.65 101.282C170.239 103.126 177.198 102.422 183.829 104.04C190.464 105.652 188.363 110.71 189.231 118.439C189.874 124.234 186.848 129.939 182.748 133.396Z" fill="url(#paint0_linear_10_1461)"/>
<path id="Vector_2" d="M193.243 175.102C188.766 194.618 36.4433 201.975 29.2146 178.825C26.6755 170.688 39.0356 163.932 39.1727 160.518C39.3135 157.104 -1.31477 151.703 0.0327966 145.625C3.70245 129.077 163.399 138.698 163.368 139.11C163.368 139.11 188.126 140.04 188.541 148.109C188.956 156.173 175.953 158.034 180.658 162.688C185.359 167.342 195.325 166.034 193.243 175.102Z" fill="url(#paint1_linear_10_1461)"/>
</g>
<path id="Vector_3" d="M192.995 94.339C192.032 96.8138 189.194 99.35 185.211 100.213C182.266 100.854 179.149 100.474 176.793 99.5611C174.432 98.6479 172.737 97.2435 171.312 95.7739C160.071 84.1647 166.431 69.1833 173.34 64.5523C176.514 62.4266 181.323 61.2832 184.978 62.6607C188.06 63.8232 187.999 65.738 188.427 67.8291C189.737 74.2523 191.387 80.6293 192.861 87.0256C193.415 89.4084 193.961 91.864 192.995 94.339Z" fill="url(#paint2_linear_10_1461)"/>
<path id="Vector_4" d="M55.8111 139.568H51.702C46.4715 139.568 42.2285 134.787 42.2285 128.894V14.9535C42.2285 9.05971 46.4715 4.27881 51.702 4.27881H55.8111C50.5806 4.27881 46.3376 9.05971 46.3376 14.9535V128.894C46.3376 134.787 50.5806 139.568 55.8111 139.568Z" fill="#A1BCE7"/>
<path id="Vector_5" d="M118.772 14.9547V128.892C118.772 134.786 114.533 139.567 109.298 139.567H55.0302C49.7997 139.567 45.5566 134.786 45.5566 128.892V14.9547C45.5566 9.06092 49.7997 4.27979 55.0302 4.27979H109.298C114.533 4.27979 118.772 9.06092 118.772 14.9547Z" fill="#B9D5FE"/>
<path id="Vector_6" d="M114.587 14.9545V128.892C114.587 132.178 112.214 134.852 109.298 134.852H55.0299C52.1133 134.852 49.7407 132.178 49.7407 128.892V14.9545C49.7407 11.668 52.1133 8.99463 55.0299 8.99463H66.3319C67.0058 11.5124 69.0812 13.3466 71.5375 13.3466H92.7902C95.2463 13.3466 97.3218 11.5124 97.9913 8.99463H109.298C112.214 8.99463 114.587 11.668 114.587 14.9545Z" fill="white"/>
<path id="Vector_7" d="M81.7723 27.8413H54.0957V55.4338H81.7723V27.8413Z" fill="url(#paint3_linear_10_1461)"/>
<path id="Vector_8" d="M80.4626 29.3174H55.4058V53.9579H80.4626V29.3174Z" fill="url(#paint4_linear_10_1461)"/>
<path id="Vector_9" d="M80.466 29.3174H75.6099V53.9579H80.466V29.3174Z" fill="url(#paint5_linear_10_1461)"/>
<path id="Vector_10" d="M57.0073 41.7197L60.2468 44.5061L61.2641 43.4297V53.958H71.4053V43.4297L72.4226 44.5061L75.662 41.7197L73.0956 36.7108C72.9233 36.3759 72.5947 36.1641 72.2661 36.1641H68.5569C68.5569 37.5573 67.5711 38.668 66.3347 38.668C65.0983 38.668 64.1125 37.5573 64.1125 36.1641H60.4033C60.0747 36.1641 59.7461 36.3759 59.5738 36.7108L57.0073 41.7197Z" fill="#4E97FD"/>
<path id="Vector_11" d="M80.4648 29.3184H79.124V53.9589H80.4648V29.3184Z" fill="#7D879C"/>
<path id="Vector_12" opacity="0.2" d="M71.9648 29.3174L80.4623 46.1023V40.125L74.9906 29.3174H71.9648Z" fill="white"/>
<path id="Vector_13" opacity="0.2" d="M55.4058 29.3174V31.4022L66.8274 53.9579H68.3401L55.8642 29.3174H55.4058Z" fill="white"/>
<path id="Vector_14" opacity="0.2" d="M55.4058 42.147V49.9622L57.4294 53.9581H61.385L55.4058 42.147Z" fill="white"/>
<path id="Vector_15" opacity="0.2" d="M58.0518 29.3174L70.5277 53.9579H78.6158L66.1399 29.3174H58.0518Z" fill="white"/>
<path id="Vector_16" d="M111.139 27.8413H83.4619V55.4338H111.139V27.8413Z" fill="url(#paint6_linear_10_1461)"/>
<path id="Vector_17" d="M109.828 29.3174H84.7715V53.9579H109.828V29.3174Z" fill="url(#paint7_linear_10_1461)"/>
<path id="Vector_18" d="M88.5781 38.7459V53.469C88.5781 53.7383 88.7734 53.9583 89.0122 53.9583H102.485C102.723 53.9583 102.919 53.7383 102.919 53.469V38.7459C102.919 38.4768 102.723 38.2568 102.485 38.2568H89.0122C88.7734 38.2568 88.5781 38.4768 88.5781 38.7459Z" fill="#FF4129"/>
<path id="Vector_19" d="M98.2348 38.2573H97.5986V53.9581H98.2348V38.2573Z" fill="#FFCD4E"/>
<path id="Vector_20" d="M102.919 41.7808H88.5796V42.4975H102.919V41.7808Z" fill="#FFCD4E"/>
<path id="Vector_21" d="M95.2083 37.5219C95.2083 37.5219 95.2083 37.5219 95.2075 37.5219C94.2226 36.4117 93.9451 34.985 94.5755 34.2738C94.8985 33.9095 95.3905 33.8008 95.9662 33.9685C96.4798 34.1188 97.01 34.48 97.4581 34.9857C98.4057 36.0526 98.1903 37.9483 98.1812 38.0285L98.1481 38.299L97.9079 38.3356C97.8855 38.3391 97.695 38.3666 97.4158 38.3666C96.8285 38.3666 95.8494 38.2448 95.2083 37.5219ZM97.0091 35.4925C96.6438 35.0818 96.2056 34.7792 95.8064 34.6623C95.4668 34.5626 95.1818 34.6051 95.0261 34.7806C94.7063 35.1409 94.8869 36.1471 95.6573 37.0151H95.6581C96.1957 37.6206 97.1243 37.664 97.5682 37.6458C97.5848 37.1425 97.5459 36.0978 97.0091 35.4925Z" fill="#FFCD4E"/>
<path id="Vector_22" d="M97.8092 38.3358L97.569 38.2992L97.5359 38.0285C97.5267 37.9483 97.3122 36.0528 98.259 34.9859C98.7071 34.4803 99.2373 34.1191 99.7508 33.9688C100.951 33.618 101.718 34.5188 101.412 35.8407C101.279 36.4192 100.959 37.0163 100.51 37.5222C100.51 37.5222 100.51 37.5222 100.509 37.5222C99.8676 38.2451 98.8885 38.3669 98.3012 38.3669C98.0221 38.3669 97.8316 38.3394 97.8092 38.3358ZM99.9107 34.6625C99.5114 34.7794 99.0733 35.0821 98.7088 35.4928C98.1712 36.0983 98.1323 37.1437 98.1488 37.6468C98.5878 37.6669 99.5197 37.6239 100.059 37.0153H100.06C100.424 36.6044 100.693 36.1107 100.796 35.6603C100.885 35.2765 100.847 34.9558 100.691 34.7808C100.501 34.5672 100.169 34.5871 99.9107 34.6625Z" fill="#FFCD4E"/>
<path id="Vector_23" d="M109.832 29.3174H104.976V53.9579H109.832V29.3174Z" fill="url(#paint8_linear_10_1461)"/>
<path id="Vector_24" d="M109.831 29.3184H108.49V53.9589H109.831V29.3184Z" fill="#7D879C"/>
<g id="Group" opacity="0.2">
<path id="Vector_25" opacity="0.2" d="M101.331 29.3174L109.829 46.1023V40.125L104.357 29.3174H101.331Z" fill="white"/>
</g>
<g id="Group_2" opacity="0.2">
<path id="Vector_26" opacity="0.2" d="M84.7715 29.3174V31.4022L96.1931 53.9579H97.7058L85.2299 29.3174H84.7715Z" fill="white"/>
</g>
<g id="Group_3" opacity="0.2">
<path id="Vector_27" opacity="0.2" d="M84.7715 42.147V49.9622L86.7951 53.9581H90.7507L84.7715 42.147Z" fill="white"/>
</g>
<g id="Group_4" opacity="0.2">
<path id="Vector_28" opacity="0.2" d="M87.4175 29.3174L99.8938 53.9579H107.982L95.5056 29.3174H87.4175Z" fill="white"/>
</g>
<g id="Group_5">
<path id="Vector_29" d="M81.7723 59.4028H54.0957V86.9954H81.7723V59.4028Z" fill="url(#paint9_linear_10_1461)"/>
<path id="Vector_30" d="M80.4626 60.8789H55.4058V85.5194H80.4626V60.8789Z" fill="url(#paint10_linear_10_1461)"/>
<path id="Vector_31" d="M66.3346 80.5201C63.3026 80.5201 60.8359 77.7407 60.8359 74.3243C60.8359 70.9078 63.3026 68.1284 66.3346 68.1284C69.3664 68.1284 71.8331 70.9078 71.8331 74.3243C71.8331 77.7407 69.3664 80.5201 66.3346 80.5201ZM66.3346 69.6666C64.0553 69.6666 62.201 71.756 62.201 74.3243C62.201 76.8925 64.0553 78.9819 66.3346 78.9819C68.6137 78.9819 70.468 76.8925 70.468 74.3243C70.468 71.756 68.6137 69.6666 66.3346 69.6666Z" fill="#2B3445"/>
<path id="Vector_32" d="M73.7458 84.4238C73.638 85.0414 73.1553 85.5036 72.5737 85.5036L60.1011 85.5195C59.4434 85.5195 58.906 84.9179 58.906 84.1728C58.9042 82.0493 58.899 75.7331 58.8989 75.6785C58.8989 75.6347 58.9007 75.5929 58.9042 75.549C58.9148 75.4096 58.9449 75.2781 58.9908 75.1546C59.1712 74.6685 59.5972 74.3279 60.094 74.3279L72.5648 74.3159C73.226 74.3139 73.7635 74.9195 73.7635 75.6646C73.7644 75.9356 73.7951 84.158 73.7458 84.4238Z" fill="#FFCD4E"/>
<path id="Vector_33" d="M80.466 60.8789H75.6099V85.5194H80.466V60.8789Z" fill="url(#paint11_linear_10_1461)"/>
<path id="Vector_34" d="M80.4648 60.8799H79.124V85.5204H80.4648V60.8799Z" fill="#7D879C"/>
<g id="Group_6" opacity="0.2">
<path id="Vector_35" opacity="0.2" d="M71.9648 60.8789L80.4623 77.6639V71.6865L74.9906 60.8789H71.9648Z" fill="white"/>
</g>
<g id="Group_7" opacity="0.2">
<path id="Vector_36" opacity="0.2" d="M55.4058 60.8789V62.9637L66.8274 85.5194H68.3401L55.8642 60.8789H55.4058Z" fill="white"/>
</g>
<g id="Group_8" opacity="0.2">
<path id="Vector_37" opacity="0.2" d="M55.4058 73.708V81.5232L57.4294 85.5192H61.385L55.4058 73.708Z" fill="white"/>
</g>
<g id="Group_9" opacity="0.2">
<path id="Vector_38" opacity="0.2" d="M58.0518 60.8789L70.5277 85.5194H78.6158L66.1399 60.8789H58.0518Z" fill="white"/>
</g>
</g>
<g id="Group_10">
<path id="Vector_39" d="M111.139 59.4028H83.4619V86.9954H111.139V59.4028Z" fill="url(#paint12_linear_10_1461)"/>
<path id="Vector_40" d="M109.829 60.8789H84.772V85.5194H109.829V60.8789Z" fill="url(#paint13_linear_10_1461)"/>
<path id="Vector_41" d="M102.988 73.8077L101.158 75.8705L103.369 78.3622C103.619 78.6445 103.619 79.1002 103.369 79.3824L102.059 80.8583C101.809 81.1406 101.404 81.1406 101.154 80.8583L98.9423 78.3666L97.1117 80.4294C96.7776 80.8058 96.2085 80.6101 96.1162 80.0902L94.657 71.8242C94.5756 71.3611 94.9404 70.9501 95.3514 71.0417L102.687 72.686C103.149 72.79 103.322 73.4313 102.988 73.8077Z" fill="white"/>
<path id="Vector_42" d="M92.9957 68.6977L94.4284 71.0551L92.3364 69.4406C92.1202 69.2738 92.0651 68.9413 92.213 68.6977C92.4002 68.3899 92.805 68.3862 92.9957 68.6977ZM91.3177 71.4288L93.6045 72.663L91.0764 72.4436C90.8152 72.4209 90.6198 72.164 90.6399 71.8697C90.6654 71.4978 91.0144 71.2663 91.3177 71.4288ZM91.0764 74.7393L93.6046 74.5199L91.3177 75.7541C91.0814 75.8816 90.7982 75.7693 90.6851 75.5031C90.5422 75.167 90.7409 74.7699 91.0764 74.7393ZM98.5987 67.5499L97.5034 70.1267L97.698 67.2779C97.7182 66.9837 97.9462 66.7635 98.2074 66.7862C98.5383 66.8148 98.7424 67.2087 98.5987 67.5499ZM95.6607 67.278L95.8554 70.1266L94.7601 67.5499C94.647 67.2837 94.7467 66.9645 94.9829 66.837C95.2811 66.6761 95.6334 66.8999 95.6607 67.278Z" fill="#2B3445"/>
<path id="Vector_43" d="M109.832 60.8789H104.976V85.5194H109.832V60.8789Z" fill="url(#paint14_linear_10_1461)"/>
<path id="Vector_44" d="M109.831 60.8799H108.49V85.5204H109.831V60.8799Z" fill="#7D879C"/>
<g id="Group_11" opacity="0.2">
<path id="Vector_45" opacity="0.2" d="M101.331 60.8789L109.829 77.6639V71.6865L104.357 60.8789H101.331Z" fill="white"/>
</g>
<g id="Group_12" opacity="0.2">
<path id="Vector_46" opacity="0.2" d="M84.772 60.8789V62.9637L96.1936 85.5194H97.7063L85.2304 60.8789H84.772Z" fill="white"/>
</g>
<g id="Group_13" opacity="0.2">
<path id="Vector_47" opacity="0.2" d="M84.772 73.708V81.5232L86.7956 85.5192H90.7512L84.772 73.708Z" fill="white"/>
</g>
<g id="Group_14" opacity="0.2">
<path id="Vector_48" opacity="0.2" d="M87.4175 60.8789L99.8938 85.5194H107.982L95.5056 60.8789H87.4175Z" fill="white"/>
</g>
</g>
<g id="Group_15">
<path id="Vector_49" d="M105.075 98.0427V109.555C105.075 110.722 104.232 111.673 103.196 111.673H61.1368C60.0963 111.673 59.2529 110.722 59.2529 109.555V98.0427C59.2529 96.8703 60.0963 95.9199 61.1368 95.9199H103.196C104.232 95.9199 105.075 96.8703 105.075 98.0427Z" fill="#94C9FE"/>
<path id="Vector_50" d="M64.7808 101.941C64.7459 101.853 64.6958 101.779 64.6322 101.723C64.5624 101.66 64.4773 101.628 64.3797 101.628H64.3287C64.2311 101.628 64.1461 101.66 64.0758 101.723C64.0118 101.78 63.9617 101.853 63.9263 101.943L62.6228 105.412C62.5996 105.474 62.5884 105.528 62.5884 105.576C62.5884 105.683 62.6215 105.777 62.6842 105.85C62.7938 105.979 62.9881 106.003 63.1255 105.901C63.1828 105.859 63.2267 105.801 63.2585 105.724L63.5615 104.905H65.1465L65.4513 105.728C65.4804 105.8 65.5243 105.858 65.5825 105.901C65.6407 105.943 65.7056 105.965 65.7754 105.965C65.8743 105.965 65.9603 105.925 66.0238 105.85C66.0869 105.777 66.1201 105.682 66.1201 105.576C66.1201 105.528 66.1089 105.474 66.0856 105.411L64.7808 101.941ZM64.8726 104.169H63.8359L64.3542 102.762L64.8726 104.169ZM69.4481 101.968C69.1598 101.762 68.8062 101.657 68.3975 101.657H67.3703C67.2749 101.657 67.1899 101.698 67.1236 101.774C67.0596 101.85 67.0256 101.946 67.0256 102.051V105.548C67.0256 105.654 67.0601 105.75 67.1254 105.823C67.1908 105.897 67.2754 105.936 67.3703 105.936H68.3975C68.8067 105.936 69.1603 105.831 69.4481 105.625C69.7355 105.419 69.9548 105.149 70.1003 104.822C70.244 104.498 70.3169 104.153 70.3169 103.797C70.3169 103.441 70.244 103.096 70.1003 102.771C69.9548 102.444 69.7355 102.174 69.4481 101.968ZM69.6276 103.797C69.6276 104.072 69.5739 104.316 69.4687 104.525C69.3644 104.731 69.2144 104.894 69.0229 105.011C68.8295 105.128 68.6003 105.188 68.3416 105.188H67.7199V102.405H68.3416C68.6003 102.405 68.8295 102.465 69.0229 102.582C69.2144 102.699 69.3644 102.863 69.4687 103.069C69.5739 103.277 69.6276 103.522 69.6276 103.797ZM73.6705 101.968C73.3822 101.762 73.0286 101.657 72.6199 101.657H71.5926C71.4973 101.657 71.4122 101.698 71.346 101.774C71.282 101.85 71.248 101.946 71.248 102.051V105.548C71.248 105.654 71.2824 105.75 71.3478 105.823C71.4131 105.897 71.4977 105.936 71.5926 105.936H72.6199C73.029 105.936 73.3827 105.831 73.6705 105.625C73.9578 105.419 74.1772 105.149 74.3226 104.822C74.4663 104.498 74.5393 104.153 74.5393 103.797C74.5393 103.441 74.4663 103.096 74.3226 102.771C74.1772 102.444 73.9578 102.174 73.6705 101.968ZM73.85 103.797C73.85 104.072 73.7962 104.316 73.6911 104.525C73.5868 104.731 73.4368 104.894 73.2452 105.011C73.0519 105.128 72.8227 105.188 72.564 105.188H71.9422V102.405H72.564C72.8227 102.405 73.0519 102.465 73.2452 102.582C73.4368 102.699 73.5868 102.863 73.6911 103.069C73.7962 103.277 73.85 103.522 73.85 103.797ZM79.6282 101.657H77.0826C76.9904 101.657 76.9085 101.696 76.8472 101.769C76.7859 101.84 76.7532 101.932 76.7532 102.034C76.7532 102.137 76.7863 102.229 76.8481 102.298C76.9103 102.368 76.9913 102.405 77.0826 102.405H78.011V105.576C78.011 105.684 78.0455 105.779 78.1108 105.852C78.1766 105.926 78.2612 105.965 78.3557 105.965C78.4492 105.965 78.5343 105.926 78.601 105.854C78.669 105.78 78.7053 105.685 78.7053 105.576V102.405H79.6282C79.7187 102.405 79.8006 102.369 79.8637 102.3C79.9286 102.23 79.9631 102.138 79.9631 102.034C79.9631 101.931 79.9295 101.839 79.8655 101.767C79.8019 101.695 79.72 101.657 79.6282 101.657ZM83.2468 101.882C82.963 101.695 82.6282 101.6 82.2513 101.6C81.8748 101.6 81.5387 101.695 81.2526 101.882C80.9657 102.07 80.7415 102.334 80.5857 102.665C80.4313 102.993 80.3494 103.373 80.3422 103.799C80.3494 104.22 80.4313 104.6 80.5857 104.929C80.7415 105.26 80.9662 105.523 81.2526 105.711V105.711C81.5387 105.898 81.8748 105.994 82.2513 105.994C82.6282 105.994 82.963 105.898 83.2468 105.711C83.5315 105.523 83.7557 105.259 83.9142 104.926C84.0704 104.596 84.1528 104.217 84.1599 103.794C84.1528 103.376 84.0704 102.997 83.9142 102.667C83.7557 102.334 83.5315 102.07 83.2468 101.882ZM82.2513 105.246C81.9979 105.246 81.7782 105.182 81.5982 105.058C81.4151 104.931 81.2795 104.763 81.1828 104.545C81.0857 104.326 81.0364 104.075 81.0364 103.797C81.0364 103.519 81.0857 103.267 81.1828 103.048C81.2782 102.833 81.4178 102.661 81.5982 102.535C81.7782 102.411 81.9979 102.347 82.2513 102.347C82.501 102.347 82.7199 102.411 82.9017 102.536C83.0834 102.661 83.2239 102.833 83.3193 103.048C83.4164 103.267 83.4657 103.519 83.4657 103.797C83.4657 104.075 83.4164 104.326 83.3193 104.545C83.2239 104.76 83.0838 104.932 82.9021 105.057C82.7199 105.182 82.501 105.246 82.2513 105.246ZM87.8478 102.546C88.0349 102.422 88.2677 102.359 88.5385 102.359C88.7144 102.359 88.8711 102.381 89.0031 102.423C89.1379 102.467 89.2789 102.531 89.423 102.616C89.5416 102.683 89.7041 102.656 89.7976 102.546C89.8545 102.478 89.8849 102.395 89.8849 102.305C89.8849 102.156 89.8254 102.041 89.7144 101.973C89.5273 101.854 89.3362 101.761 89.1464 101.697C88.9539 101.632 88.7337 101.6 88.4924 101.6C88.1343 101.6 87.8071 101.689 87.5197 101.866C87.2306 102.044 87.0005 102.303 86.8362 102.636C86.6719 102.967 86.5887 103.358 86.5887 103.797C86.5887 104.236 86.6719 104.626 86.8358 104.957C87.0005 105.29 87.2306 105.549 87.5197 105.727C87.8071 105.904 88.1343 105.994 88.4924 105.994C88.7337 105.994 88.9539 105.961 89.1464 105.896C89.3353 105.833 89.5264 105.74 89.7126 105.621C89.8236 105.553 89.8849 105.435 89.8849 105.288C89.8849 105.193 89.854 105.108 89.7954 105.042C89.7032 104.938 89.5452 104.909 89.4208 104.978C89.2789 105.062 89.1379 105.126 89.0031 105.17C88.8711 105.212 88.7144 105.234 88.5385 105.234C88.2677 105.234 88.0349 105.171 87.8474 105.047C87.6621 104.925 87.5206 104.755 87.4271 104.543C87.3313 104.326 87.2829 104.075 87.2829 103.797C87.2829 103.518 87.3313 103.267 87.4271 103.05C87.5206 102.838 87.6621 102.668 87.8478 102.546ZM92.6919 101.941C92.657 101.853 92.6069 101.779 92.5433 101.723C92.4735 101.66 92.3884 101.628 92.2909 101.628H92.2398C92.1423 101.628 92.0572 101.66 91.9869 101.723C91.9229 101.78 91.8728 101.853 91.8374 101.943L90.534 105.412C90.5107 105.474 90.4995 105.528 90.4995 105.576C90.4995 105.683 90.5326 105.777 90.5953 105.85C90.7054 105.979 90.8988 106.003 91.0366 105.901C91.0939 105.859 91.1378 105.801 91.1696 105.724L91.4726 104.905H93.0576L93.3625 105.728C93.3916 105.8 93.4354 105.858 93.4936 105.901C93.5518 105.943 93.6167 105.965 93.6865 105.965C93.7855 105.965 93.8714 105.925 93.935 105.85C93.9981 105.777 94.0312 105.682 94.0312 105.576C94.0312 105.528 94.02 105.474 93.9967 105.411L92.6919 101.941ZM92.7837 104.169H91.747L92.2654 102.762L92.7837 104.169ZM97.7863 103.659C97.9129 103.447 97.9774 103.211 97.9774 102.956C97.9774 102.567 97.8462 102.249 97.588 102.009C97.3364 101.776 96.9609 101.657 96.4725 101.657H95.2814C95.1861 101.657 95.101 101.698 95.0348 101.774C94.9708 101.85 94.9367 101.946 94.9367 102.051V105.576C94.9367 105.684 94.9712 105.779 95.0366 105.852C95.1677 105.999 95.3929 106 95.5267 105.854C95.5947 105.78 95.631 105.685 95.631 105.576V104.369H96.5746C96.7773 104.369 96.9273 104.422 97.0204 104.525C97.1211 104.637 97.1829 104.759 97.2088 104.898C97.2375 105.051 97.2523 105.221 97.2523 105.404V105.576C97.2523 105.686 97.2858 105.783 97.3498 105.855C97.4134 105.927 97.5007 105.965 97.6023 105.965C97.6967 105.965 97.7813 105.926 97.8467 105.852C97.912 105.779 97.9465 105.684 97.9465 105.576V105.312C97.9465 105.037 97.8986 104.753 97.8042 104.468C97.7343 104.259 97.6233 104.101 97.4725 103.994C97.6001 103.906 97.7052 103.794 97.7863 103.659ZM97.2831 102.996C97.2831 103.19 97.2151 103.336 97.0754 103.442C96.9233 103.557 96.7097 103.616 96.4416 103.616H95.631V102.411H96.4161C96.7473 102.411 96.9801 102.464 97.1072 102.57C97.2254 102.668 97.2831 102.808 97.2831 102.996ZM101.642 101.767C101.579 101.695 101.497 101.657 101.405 101.657H98.8596C98.7674 101.657 98.6855 101.696 98.6242 101.769C98.5629 101.84 98.5302 101.932 98.5302 102.034C98.5302 102.137 98.5633 102.229 98.6251 102.298C98.6873 102.368 98.7683 102.405 98.8596 102.405H99.788V105.576C99.788 105.684 99.8225 105.779 99.8878 105.852C99.9536 105.926 100.038 105.965 100.133 105.965C100.226 105.965 100.311 105.926 100.378 105.854C100.446 105.78 100.482 105.685 100.482 105.576V102.405H101.405C101.496 102.405 101.578 102.369 101.641 102.3C101.706 102.23 101.74 102.138 101.74 102.034C101.74 101.931 101.706 101.839 101.642 101.767Z" fill="white"/>
</g>
<g id="Group_16">
<path id="Vector_51" d="M127.125 102.484L126.906 106.028L125.161 130.524L144.243 133.335L146.264 105.304L127.125 102.484Z" fill="#FFCD4E"/>
<path id="Vector_52" d="M139.044 106.515C138.986 107.016 139.3 107.477 139.745 107.543C140.189 107.608 140.598 107.254 140.657 106.753C140.715 106.252 140.4 105.791 139.956 105.726C139.511 105.66 139.102 106.014 139.044 106.515ZM131.82 105.451C131.762 105.952 132.077 106.413 132.521 106.479C132.966 106.544 133.375 106.19 133.433 105.689C133.491 105.188 133.177 104.727 132.732 104.662C132.287 104.596 131.879 104.95 131.82 105.451Z" fill="white"/>
<path id="Vector_53" d="M125.161 130.524L121.411 129.972L127.124 102.482L125.161 130.524Z" fill="#EAC250"/>
<g id="Group_17">
<path id="Vector_54" d="M132.587 105.906C132.724 105.926 132.848 105.818 132.866 105.664L133.218 102.631C133.46 100.54 135.168 99.0615 137.023 99.3348C138.879 99.6081 140.191 101.532 139.949 103.623L139.597 106.656C139.579 106.809 139.675 106.95 139.811 106.97C139.947 106.99 140.072 106.882 140.09 106.728L140.442 103.695C140.72 101.298 139.215 99.0928 137.088 98.7795C134.96 98.4661 133.003 100.161 132.725 102.559L132.373 105.592C132.355 105.745 132.451 105.886 132.587 105.906Z" fill="#2B3445"/>
</g>
</g>
<g id="Group_18">
<path id="Vector_55" d="M166.524 147.204L166.618 152.362C166.622 152.387 166.64 152.407 166.665 152.407L171.615 152.346L171.858 149.698L172.071 147.383L166.524 147.204Z" fill="#FCE9EC"/>
<path id="Vector_56" d="M160.71 157.585C160.71 157.622 160.714 157.663 160.714 157.704C160.721 157.805 160.793 157.887 160.884 157.887C162.03 157.899 168.245 158.017 171.406 157.899C172.176 157.871 172.736 157.072 172.591 156.22L171.735 152.183L166.625 151.93C166.615 151.93 166.607 151.93 166.6 151.938L162.464 155.076C161.43 155.662 160.71 156.416 160.71 157.585Z" fill="#2B3445"/>
<path id="Vector_57" d="M186.125 145.594L187.816 150.388C187.827 150.41 187.85 150.422 187.873 150.412L192.491 148.402L191.895 145.826L191.376 143.574L186.125 145.594Z" fill="#FCE9EC"/>
<path id="Vector_58" d="M183.903 157.612C183.915 157.646 183.931 157.683 183.944 157.721C183.982 157.813 184.075 157.861 184.16 157.825C185.237 157.385 191.096 155.044 194.02 153.686C194.732 153.356 195.009 152.387 194.609 151.646L192.552 148.202L187.688 149.981C187.678 149.985 187.671 149.988 187.667 149.998L184.766 154.569C183.98 155.526 183.54 156.516 183.903 157.612ZM185.529 91.564C185.529 91.564 186.741 113.007 187.65 120.09C188.527 126.921 192.607 145.537 192.607 145.537C192.986 146.422 186.504 149.087 186.125 148.202C186.125 148.202 179.017 124.636 179.065 124.424C179.112 124.211 176.139 108.366 176.139 108.366C176.139 108.366 173.869 121.046 173.449 125.328C172.881 131.12 172.553 148.617 172.553 148.617C172.553 149.783 165.672 149.783 165.672 148.617C165.672 148.617 163.585 129.76 163.623 123.403C163.67 115.414 167.692 91.7766 167.692 91.7766L185.529 91.564Z" fill="#2B3445"/>
<path id="Vector_59" d="M152.097 73.255L151.561 78.1925C151.561 78.1925 147.24 78.0896 146.704 76.0414C146.168 73.9977 148.017 72.2465 148.017 72.2465C148.017 72.2465 142.16 69.1221 142.801 67.7186C143.43 66.3379 148.94 71.0013 149.135 71.1658C149.102 71.0423 148.603 69.2958 149.496 68.5231C150.421 67.7186 152.097 73.255 152.097 73.255Z" fill="#FCE9EC"/>
<path id="Vector_60" d="M149.683 78.0977C149.683 78.0977 156.909 84.0501 161.477 86.5875C162.836 87.3418 163.96 87.7944 164.589 87.6984C166.163 87.4607 168.196 84.3701 169.758 81.5265C171.138 79.0074 172.148 76.6804 172.148 76.6804L165.802 61.8813C164.135 65.1137 163.023 70.9427 162.106 77.6131L152.541 72.2146C151.38 73.6732 150.467 75.7305 149.683 78.0977Z" fill="#94C9FE"/>
<path id="Vector_61" d="M161.478 86.5876C162.837 87.3419 163.961 87.7945 164.589 87.6985C166.164 87.4607 168.196 84.3702 169.759 81.5265C169.665 80.923 169.535 80.3242 169.393 79.7435C168.785 77.2747 167.925 74.8791 166.845 72.6252C166.5 71.9074 165.892 70.0513 165.084 69.8638C164.204 69.6581 164.366 72.0079 164.297 72.7029C164.127 74.3533 163.961 76.0083 163.794 77.6588C163.563 79.9538 163.32 82.2854 162.541 84.4251C162.265 85.1794 161.908 85.9155 161.478 86.5876Z" fill="#4E97FD"/>
<path id="Vector_62" d="M165.758 98.2593C165.88 99.736 181.898 98.8033 186.101 97.418C186.754 97.2031 187.124 96.9791 187.103 96.7505C187.103 96.7505 186.84 78.381 185.46 67.052C184.957 62.9099 184.304 59.7096 183.46 58.6946C181.614 56.4727 176.814 56.8247 174.209 57.3826C171.75 57.9129 166.861 59.4352 165.697 62.1006C163.77 66.5079 165.758 98.2593 165.758 98.2593Z" fill="#94C9FE"/>
<path id="Vector_63" d="M171.861 94.9026C171.886 94.954 172.935 95.1316 174.505 94.5693C176.079 94.0069 176.384 93.3312 177.97 92.8237C179.707 92.2705 181.642 92.5449 183.204 93.569C184.519 94.433 185.553 95.8229 186.101 97.4184C186.754 97.2036 187.124 96.9795 187.103 96.7509C187.103 96.7509 186.84 78.3814 185.46 67.0524C185.407 66.9747 185.351 66.9015 185.298 66.8238C184.567 65.7997 183.793 64.7893 182.867 63.9801C182.194 63.3858 180.835 62.2977 179.91 62.5948C178.554 63.0193 177.565 67.8038 177.455 69.5943C177.182 74.2243 178.817 75.8283 178.847 78.4774C178.871 80.9096 177.325 83.0217 175.597 84.4847C173.872 85.9478 171.298 88.516 169.752 90.2167C169.752 90.2167 171.81 94.7995 171.861 94.9026Z" fill="#4E97FD"/>
<path id="Vector_64" d="M182.607 57.9401C190.953 61.879 192.747 81.1515 191.539 84.6844C190.484 87.7708 171.861 94.9023 171.861 94.9023L169.603 90.3224L183.283 80.6515C183.283 80.6515 179.899 69.8205 179.159 66.3482C178.558 63.5309 181.125 57.2407 182.607 57.9401Z" fill="#94C9FE"/>
<g id="Group_19">
<path id="Vector_65" d="M155.342 135.09C155.332 135.09 155.322 135.089 155.311 135.088L118.189 130.615C118.068 130.6 117.968 130.501 117.941 130.367L113.059 106.301C113.04 106.206 113.06 106.106 113.114 106.029C113.168 105.953 113.25 105.908 113.337 105.908L158.307 105.895C158.388 105.895 158.466 105.934 158.52 106.002C158.574 106.071 158.599 106.162 158.59 106.253L155.625 134.805C155.608 134.969 155.485 135.09 155.342 135.09ZM118.452 130L155.091 134.414L157.986 106.538L113.695 106.551L118.452 130Z" fill="#4E97FD"/>
<path id="Vector_66" d="M124.011 131.315C123.865 131.315 123.74 131.189 123.727 131.022L121.791 106.255C121.777 106.078 121.893 105.922 122.05 105.906C122.208 105.891 122.345 106.021 122.359 106.198L124.296 130.965C124.309 131.142 124.193 131.298 124.036 131.314C124.028 131.314 124.02 131.315 124.011 131.315ZM131.153 132.175C130.996 132.175 130.868 132.031 130.868 131.854V106.216C130.868 106.038 130.996 105.895 131.153 105.895C131.311 105.895 131.438 106.038 131.438 106.216V131.854C131.438 132.031 131.311 132.175 131.153 132.175ZM139.829 132.872C139.824 132.872 139.819 132.872 139.814 132.872C139.657 132.862 139.536 132.711 139.544 132.534L140.739 106.2C140.748 106.022 140.893 105.887 141.039 105.895C141.196 105.904 141.318 106.055 141.309 106.232L140.114 132.567C140.106 132.739 139.98 132.872 139.829 132.872ZM148.503 134.266C148.495 134.266 148.488 134.265 148.48 134.265C148.323 134.25 148.206 134.095 148.218 133.918L150.183 106.191C150.196 106.013 150.336 105.882 150.49 105.896C150.647 105.91 150.764 106.065 150.752 106.242L148.787 133.97C148.775 134.138 148.65 134.266 148.503 134.266Z" fill="#4E97FD"/>
<path id="Vector_67" d="M157.486 114.445H114.939C114.781 114.445 114.653 114.301 114.653 114.124C114.653 113.946 114.781 113.802 114.939 113.802H157.486C157.643 113.802 157.771 113.946 157.771 114.124C157.771 114.301 157.643 114.445 157.486 114.445ZM156.343 125.454C156.34 125.454 156.337 125.454 156.333 125.454L117.298 124.023C117.14 124.018 117.017 123.869 117.022 123.692C117.027 123.518 117.154 123.38 117.307 123.38C117.31 123.38 117.313 123.381 117.317 123.381L156.352 124.811C156.509 124.817 156.633 124.966 156.628 125.143C156.623 125.317 156.496 125.454 156.343 125.454ZM158.416 147.16H128.699C128.541 147.16 128.413 147.016 128.413 146.839C128.413 146.661 128.541 146.517 128.699 146.517H158.416C159.497 146.517 160.375 145.527 160.375 144.31V140.299C160.375 139.622 160.091 138.97 159.617 138.555L155.178 135.031C155.049 134.929 155.018 134.728 155.109 134.583C155.199 134.438 155.377 134.403 155.506 134.505L159.955 138.038C160.58 138.582 160.946 139.424 160.946 140.299V144.31C160.946 145.882 159.811 147.16 158.416 147.16ZM157.938 110.088C157.926 110.088 157.913 110.087 157.9 110.086C157.744 110.062 157.634 109.901 157.655 109.724L158.462 102.883C158.473 102.789 158.52 102.706 158.591 102.655L165.353 97.7765C165.486 97.6803 165.663 97.7246 165.748 97.8739C165.832 98.0235 165.794 98.2223 165.661 98.318L159.01 103.116L158.221 109.809C158.202 109.971 158.079 110.088 157.938 110.088Z" fill="#4E97FD"/>
<path id="Vector_68" d="M157.152 150.041L152.853 150.205L150.863 146.839H154.761L157.152 150.041Z" fill="#4E97FD"/>
<path id="Vector_69" d="M154.931 155.906C156.63 155.906 158.008 154.354 158.008 152.438C158.008 150.523 156.63 148.971 154.931 148.971C153.231 148.971 151.853 150.523 151.853 152.438C151.853 154.354 153.231 155.906 154.931 155.906Z" fill="#4E97FD"/>
<path id="Vector_70" d="M136.324 150.041L132.025 150.205L130.035 146.839H133.933L136.324 150.041Z" fill="#4E97FD"/>
<path id="Vector_71" d="M134.102 155.906C135.802 155.906 137.179 154.354 137.179 152.438C137.179 150.523 135.802 148.971 134.102 148.971C132.402 148.971 131.024 150.523 131.024 152.438C131.024 154.354 132.402 155.906 134.102 155.906Z" fill="#4E97FD"/>
</g>
<g id="Group_20">
<path id="Vector_72" d="M173.625 42.3803C173.625 42.3803 172.85 47.2379 168.552 46.1549C164.256 45.0756 165.352 39.6112 165.352 39.6112L170.762 39.3511L173.625 42.3803Z" fill="#2B3445"/>
<path id="Vector_73" d="M180.043 40.624C180.043 40.624 181.504 48.5315 176.164 54.3912C171.211 59.8258 171.322 46.7491 170.939 46.9629L174.771 41.2312L180.043 40.624Z" fill="#2B3445"/>
<path id="Vector_74" d="M176.987 57.0478C176.987 57.0478 174.491 61.2787 171.95 61.438C169.41 61.5973 171.855 57.6116 171.855 57.6116C171.855 57.6116 172.132 56.9828 172.274 56.114C172.34 55.7264 172.378 55.2881 172.35 54.8377C172.352 54.8278 172.349 54.8196 172.347 54.811C172.327 54.4845 172.272 54.1526 172.165 53.8269C172.918 53.4193 173.575 52.7899 174.114 52.1408C175.114 50.9369 175.702 49.6802 175.702 49.6802C175.702 49.6802 175.999 54.8496 176.987 57.0478Z" fill="#FCE9EC"/>
<path id="Vector_75" d="M174.258 53.0732C173.951 54.3446 172.81 55.5834 172.274 56.1143C172.34 55.7267 172.378 55.2883 172.351 54.838C172.352 54.8281 172.349 54.8199 172.347 54.8113C173.077 54.3561 173.72 53.7226 174.258 53.0732Z" fill="#F4BEBE"/>
<path id="Vector_76" d="M178.362 47.103C178.907 48.8994 176.058 50.2847 176.058 50.2847C176.058 50.2847 174.479 53.6637 172.052 54.9846C171.004 55.5547 169.801 55.745 168.497 55.1117C165.521 53.6691 166.142 45.3893 166.497 42.2007C166.584 41.4266 166.656 40.9512 166.656 40.9512L177.299 40.2485L176.085 46.596C176.085 46.596 177.817 45.3064 178.362 47.103Z" fill="#FCE9EC"/>
<path id="Vector_77" d="M171.77 47.1445C171.863 46.7844 171.752 46.4315 171.523 46.3564C171.293 46.2812 171.032 46.5122 170.939 46.8723C170.846 47.2325 170.957 47.5853 171.186 47.6605C171.416 47.7357 171.677 47.5047 171.77 47.1445Z" fill="#2B3445"/>
<path id="Vector_78" d="M168.422 46.6001C168.515 46.24 168.405 45.8871 168.175 45.812C167.946 45.7368 167.685 45.9678 167.592 46.3279C167.499 46.6881 167.609 47.0409 167.839 47.1161C168.068 47.1912 168.329 46.9602 168.422 46.6001Z" fill="#2B3445"/>
<path id="Vector_79" d="M167.825 45.4852C167.9 45.3897 167.992 45.3104 168.087 45.2344C168.308 45.0836 168.61 45.1503 168.753 45.4293C168.802 45.5497 168.839 45.6734 168.858 45.7996C168.768 45.7133 168.704 45.6189 168.638 45.5316C168.5 45.3927 168.376 45.3241 168.138 45.3885C168.041 45.4285 167.941 45.4649 167.825 45.4852ZM171.099 45.916C171.175 45.8205 171.267 45.7412 171.362 45.6652C171.583 45.5141 171.885 45.5816 172.027 45.8601C172.077 45.9804 172.113 46.1042 172.132 46.2304C172.043 46.1441 171.978 46.0497 171.913 45.9624C171.839 45.8883 171.764 45.8285 171.684 45.8096C171.604 45.7858 171.509 45.7931 171.412 45.8193C171.316 45.8592 171.216 45.8957 171.099 45.916ZM169.632 46.3811C169.615 46.8419 169.522 48.1063 169.349 48.5757C169.282 48.7534 169.171 48.9265 169.044 49.0504C168.716 49.3757 168.523 49.6083 169.042 50.3669C168.917 50.249 168.798 50.1201 168.704 49.9579C168.463 49.4983 168.628 49.2427 168.92 48.9035C169.034 48.7821 169.115 48.6502 169.175 48.4905C169.291 48.1934 169.436 47.1463 169.632 46.3811Z" fill="#2B3445"/>
<path id="Vector_80" d="M170.247 52.0242C170.246 52.0356 170.248 52.0464 170.246 52.0575C170.155 52.773 169.566 53.2692 168.931 53.1661C168.296 53.063 167.856 52.3995 167.947 51.6841C167.949 51.6729 167.953 51.663 167.954 51.6519C168.688 52.0433 169.452 52.1718 170.247 52.0242Z" fill="white"/>
<path id="Vector_81" d="M178.362 47.1032C177.817 45.3066 176.085 46.5961 176.085 46.5961L175.497 47.2536L174.649 44.184C174.649 44.184 169.153 44.5587 166.095 43.3921C164.99 42.975 164.586 41.1621 164.441 40.2538C163.893 36.8388 168.933 35.7982 168.933 35.7982C168.501 37.0062 169.484 37.6165 169.484 37.6165C171.299 34.9443 173.569 35.1165 173.569 35.1165C173.569 35.1165 172.812 37.2064 173.955 37.9263C175.101 38.645 177.842 36.7948 180.159 38.6905C183.363 41.313 178.362 47.1032 178.362 47.1032Z" fill="#2B3445"/>
</g>
<path id="Vector_82" d="M171.86 94.9044L169.604 97.0211C169.604 97.0211 165.527 101.442 163.624 97.8578C161.717 94.278 168.302 92.463 168.302 92.463C168.302 92.463 167.409 92.376 166.902 91.5624C166.391 90.7531 169.754 90.2183 169.754 90.2183L171.86 94.9044Z" fill="#FCE9EC"/>
</g>
<g id="Group 2476">
<path id="Vector_83" d="M125.564 74.5181L125.894 76.8275C125.932 77.13 125.702 77.3982 125.433 77.3463L123.038 76.9138C121.665 77.8047 120.068 78.3148 118.372 78.3148C113.198 78.3148 109 73.5926 109 67.7633C109 61.934 113.198 57.2031 118.372 57.2031C123.545 57.2031 127.736 61.934 127.736 67.7633C127.736 70.332 126.915 72.6931 125.564 74.5181Z" fill="url(#paint15_linear_10_1461)"/>
<g id="Group_21">
<path id="Vector_84" d="M116.034 71.6292L114.424 69.8152C114.001 69.3383 114.001 68.5655 114.424 68.0886C114.847 67.612 115.533 67.612 115.956 68.0886L116.8 69.0394L120.78 64.5542C121.203 64.0776 121.889 64.0776 122.312 64.5542C122.735 65.0311 122.735 65.804 122.312 66.2809L117.566 71.6292C117.142 72.106 116.457 72.1058 116.034 71.6292Z" fill="white"/>
</g>
</g>
<path id="Vector_85" d="M128.775 36.5894L128.445 38.8988C128.407 39.2013 128.637 39.4695 128.906 39.4176L131.3 38.9851C132.674 39.876 134.271 40.3861 135.967 40.3861C141.14 40.3861 145.339 35.6639 145.339 29.8346C145.339 24.0053 141.14 19.2744 135.967 19.2744C130.794 19.2744 126.603 24.0053 126.603 29.8346C126.603 32.4033 127.424 34.7644 128.775 36.5894Z" fill="url(#paint16_linear_10_1461)"/>
<g id="Group_22">
<path id="Vector_86" d="M135.736 35.1141C135.736 35.6534 135.349 36.0892 134.87 36.0892C134.392 36.0892 134.005 35.6534 134.005 35.1141C134.005 34.5771 134.392 34.1393 134.87 34.1393C135.349 34.1393 135.736 34.5771 135.736 35.1141ZM139.24 31.9068H133.9L134.062 32.6617H139.646C139.813 32.6617 139.947 32.8127 139.947 33.0004C139.947 33.1859 139.813 33.3391 139.646 33.3391H133.827C133.687 33.3391 133.569 33.2312 133.536 33.0802C133.102 31.0596 133.946 34.9901 131.842 25.2029H130.351C130.184 25.2029 130.05 25.0519 130.05 24.8664C130.05 24.6788 130.184 24.5278 130.351 24.5278H132.077C132.217 24.5278 132.336 24.6357 132.368 24.7866L132.734 26.4821H140.802C141.074 26.4821 141.262 26.7904 141.164 27.0752L139.602 31.6263C139.545 31.7946 139.401 31.9068 139.24 31.9068ZM139.286 35.1141C139.286 35.6534 138.898 36.0892 138.421 36.0892C137.943 36.0892 137.556 35.6534 137.556 35.1141C137.556 34.5771 137.943 34.1393 138.421 34.1393C138.898 34.1393 139.286 34.5771 139.286 35.1141Z" fill="white"/>
</g>
<path id="Vector_87" d="M137.905 28.4814V29.5922H137.004V30.6073H136.018V29.5922H135.117V28.4814H136.018V27.4658H137.004V28.4814H137.905Z" fill="url(#paint17_linear_10_1461)"/>
</g>
<defs>
<linearGradient id="paint0_linear_10_1461" x1="95.9492" y1="-13.8364" x2="95.9492" y2="80.7317" gradientUnits="userSpaceOnUse">
<stop stop-color="#F5F8FF" stop-opacity="0"/>
<stop offset="1" stop-color="#E1E9FE"/>
</linearGradient>
<linearGradient id="paint1_linear_10_1461" x1="96.7624" y1="196.941" x2="96.7624" y2="143.418" gradientUnits="userSpaceOnUse">
<stop stop-color="#F5F8FF" stop-opacity="0"/>
<stop offset="1" stop-color="#E1E9FE"/>
</linearGradient>
<linearGradient id="paint2_linear_10_1461" x1="179.352" y1="46.1113" x2="179.352" y2="137.646" gradientUnits="userSpaceOnUse">
<stop stop-color="#CEDCF9" stop-opacity="0"/>
<stop offset="1" stop-color="#C3D2FF"/>
</linearGradient>
<linearGradient id="paint3_linear_10_1461" x1="67.934" y1="33.5679" x2="67.934" y2="70.5224" gradientUnits="userSpaceOnUse">
<stop stop-color="#F5F8FF" stop-opacity="0"/>
<stop offset="1" stop-color="#E1E9FE"/>
</linearGradient>
<linearGradient id="paint4_linear_10_1461" x1="73.8487" y1="34.9732" x2="63.7911" y2="43.899" gradientUnits="userSpaceOnUse">
<stop stop-color="#D1DEFF"/>
<stop offset="1" stop-color="#B2C7FF"/>
</linearGradient>
<linearGradient id="paint5_linear_10_1461" x1="79.0089" y1="41.3369" x2="73.8999" y2="42.5835" gradientUnits="userSpaceOnUse">
<stop stop-color="#D1DEFF"/>
<stop offset="1" stop-color="#B2C7FF"/>
</linearGradient>
<linearGradient id="paint6_linear_10_1461" x1="97.3002" y1="33.5679" x2="97.3002" y2="70.5224" gradientUnits="userSpaceOnUse">
<stop stop-color="#F5F8FF" stop-opacity="0"/>
<stop offset="1" stop-color="#E1E9FE"/>
</linearGradient>
<linearGradient id="paint7_linear_10_1461" x1="103.214" y1="34.9732" x2="93.1568" y2="43.899" gradientUnits="userSpaceOnUse">
<stop stop-color="#D1DEFF"/>
<stop offset="1" stop-color="#B2C7FF"/>
</linearGradient>
<linearGradient id="paint8_linear_10_1461" x1="108.375" y1="41.3369" x2="103.266" y2="42.5835" gradientUnits="userSpaceOnUse">
<stop stop-color="#D1DEFF"/>
<stop offset="1" stop-color="#B2C7FF"/>
</linearGradient>
<linearGradient id="paint9_linear_10_1461" x1="67.934" y1="65.1294" x2="67.934" y2="102.084" gradientUnits="userSpaceOnUse">
<stop stop-color="#F5F8FF" stop-opacity="0"/>
<stop offset="1" stop-color="#E1E9FE"/>
</linearGradient>
<linearGradient id="paint10_linear_10_1461" x1="73.8487" y1="66.5343" x2="63.7911" y2="75.4605" gradientUnits="userSpaceOnUse">
<stop stop-color="#D1DEFF"/>
<stop offset="1" stop-color="#B2C7FF"/>
</linearGradient>
<linearGradient id="paint11_linear_10_1461" x1="79.0089" y1="72.8984" x2="73.8999" y2="74.145" gradientUnits="userSpaceOnUse">
<stop stop-color="#D1DEFF"/>
<stop offset="1" stop-color="#B2C7FF"/>
</linearGradient>
<linearGradient id="paint12_linear_10_1461" x1="97.3002" y1="65.1294" x2="97.3002" y2="102.084" gradientUnits="userSpaceOnUse">
<stop stop-color="#F5F8FF" stop-opacity="0"/>
<stop offset="1" stop-color="#E1E9FE"/>
</linearGradient>
<linearGradient id="paint13_linear_10_1461" x1="103.215" y1="66.5343" x2="93.1573" y2="75.4605" gradientUnits="userSpaceOnUse">
<stop stop-color="#D1DEFF"/>
<stop offset="1" stop-color="#B2C7FF"/>
</linearGradient>
<linearGradient id="paint14_linear_10_1461" x1="108.375" y1="72.8984" x2="103.266" y2="74.145" gradientUnits="userSpaceOnUse">
<stop stop-color="#D1DEFF"/>
<stop offset="1" stop-color="#B2C7FF"/>
</linearGradient>
<linearGradient id="paint15_linear_10_1461" x1="109" y1="67.7588" x2="127.736" y2="67.7588" gradientUnits="userSpaceOnUse">
<stop stop-color="#909EFF"/>
<stop offset="1" stop-color="#6977E3"/>
</linearGradient>
<linearGradient id="paint16_linear_10_1461" x1="126.603" y1="29.8305" x2="145.339" y2="29.8305" gradientUnits="userSpaceOnUse">
<stop stop-color="#909EFF"/>
<stop offset="1" stop-color="#6977E3"/>
</linearGradient>
<linearGradient id="paint17_linear_10_1461" x1="135.117" y1="29.0366" x2="137.905" y2="29.0366" gradientUnits="userSpaceOnUse">
<stop stop-color="#909EFF"/>
<stop offset="1" stop-color="#6977E3"/>
</linearGradient>
</defs>
</svg>
